<?xml version="1.0" encoding="utf-8"?>
<!-- Generator: Adobe Illustrator 18.0.0, SVG Export Plug-In . SVG Version: 6.00 Build 0)  -->
<!DOCTYPE svg PUBLIC "-//W3C//DTD SVG 1.1//EN" "http://www.w3.org/Graphics/SVG/1.1/DTD/svg11.dtd">
<svg version="1.1" id="Your_Icon" xmlns="http://www.w3.org/2000/svg" xmlns:xlink="http://www.w3.org/1999/xlink" x="0px" y="0px"
	 viewBox="14.3 9.7 74.1 51.1" enable-background="new 14.3 9.7 74.1 51.1" xml:space="preserve">
<g transform="translate(0.000000,2000.000000) scale(0.100000,-0.100000)">
	<path fill="#FFFFFF" d="M868.5,19902.2c-1.9-0.7-3.8-2.5-18.3-16.9c-15.1-14.9-24.1-23.8-68.5-67.8c-9.2-9.1-24.4-24.1-33.6-33.2
		c-9.2-9.2-32.3-32-51.4-50.8c-19-18.8-42.5-42-52.1-51.6c-9.7-9.5-24.9-24.7-34-33.6c-9-8.9-24.3-24-33.8-33.6
		c-9.6-9.5-17.6-17.5-17.9-17.6s-8.2-8-17.7-17.4c-9.5-9.4-24.7-24.6-33.8-33.6c-9.1-9-24.5-24.2-34.2-33.8
		c-81.3-80.5-94.8-93.8-95.3-93.8c-0.2,0-6.5,6.1-14,13.6c-20.1,19.9-43.1,42.7-81.3,80.4c-18.7,18.4-49.5,48.9-68.4,67.6
		c-52.7,52.1-54.5,53.9-55.9,54.6c-0.8,0.4-2.5,0.8-4.2,0.9c-3.7,0.2-6.1-0.7-8.5-3.3c-3-3.2-3.7-8-1.8-11.8
		c0.8-1.7,6.5-7.4,92.3-92.1c9.2-9.1,24.6-24.3,34-33.8c9.5-9.4,17.4-17.2,17.6-17.4c0.2-0.1,15.7-15.3,34.3-33.8
		c52.4-51.9,50-49.6,52.4-50.3c3.6-1.2,6.6-0.8,9.5,1.2c0.9,0.6,8.5,7.9,17,16.3c8.4,8.4,23.1,22.9,32.5,32.3
		c9.5,9.4,25.2,24.9,34.9,34.6c9.8,9.7,32.9,32.5,51.4,50.8c98.4,97.2,117.7,116.4,155.8,154.1c17.4,17.3,64.7,63.9,119.5,118.2
		c19.1,18.9,42.3,41.8,51.6,51c9.2,9.1,20.8,20.6,25.8,25.6c9.6,9.4,10.5,10.7,10.9,14.3C884.1,19899.1,876,19905.1,868.5,19902.2z"
		/>
</g>
</svg>
